<svg xmlns="http://www.w3.org/2000/svg" viewBox="0 0 360 100" width="720" height="200">
  <defs>
    <linearGradient id="irisGradient" x1="0%" y1="0%" x2="100%" y2="100%">
      <stop offset="0%" stop-color="#E8A838"/>
      <stop offset="100%" stop-color="#E8853D"/>
    </linearGradient>
  </defs>
  
  <!-- ICON GROUP -->
  <g transform="translate(10, 10) scale(0.8)">
    <path d="M 18 50 Q 50 18 82 50" fill="none" stroke="#1B4965" stroke-width="3.5" stroke-linecap="round"/>
    <path d="M 18 50 Q 50 82 82 50" fill="none" stroke="#1B4965" stroke-width="3.5" stroke-linecap="round"/>
    <circle cx="50" cy="50" r="17" fill="none" stroke="#1B4965" stroke-width="1.2" opacity="0.4"/>
    <circle cx="50" cy="50" r="13" fill="url(#irisGradient)"/>
    <circle cx="46" cy="46" r="4" fill="#F5D78E" opacity="0.6"/>
    <line x1="8" y1="50" x2="30" y2="50" stroke="#E8A838" stroke-width="2" stroke-linecap="round" opacity="0.7"/>
    <line x1="70" y1="50" x2="92" y2="50" stroke="#E8A838" stroke-width="2" stroke-linecap="round" opacity="0.7"/>
    <circle cx="8" cy="50" r="3.5" fill="#E8A838"/>
    <circle cx="8" cy="50" r="5.5" fill="none" stroke="#E8A838" stroke-width="0.8" opacity="0.4"/>
    <circle cx="92" cy="50" r="3.5" fill="#E8A838"/>
    <circle cx="92" cy="50" r="5.5" fill="none" stroke="#E8A838" stroke-width="0.8" opacity="0.4"/>
    <circle cx="22" cy="50" r="1.5" fill="#E8853D" opacity="0.5"/>
    <circle cx="78" cy="50" r="1.5" fill="#E8853D" opacity="0.5"/>
  </g>
  
  <!-- WORDMARK -->
  <g transform="translate(105, 30)">
    <text x="0" y="28" font-family="'Inter', 'Helvetica Neue', Arial, sans-serif" 
          font-size="32" font-weight="700" letter-spacing="3" fill="#1B4965">ANGAVU</text>
    <text x="1" y="48" font-family="'Inter', 'Helvetica Neue', Arial, sans-serif" 
          font-size="13" font-weight="400" letter-spacing="6" fill="#E8A838">INTELLIGENCE</text>
  </g>
</svg>
