<svg xmlns="http://www.w3.org/2000/svg" viewBox="0 0 1200 300" width="1200" height="300" role="img" aria-label="Angavu Intelligence — Clarity for Africa's Invisible Economy">
  <defs>
    <linearGradient id="bgGrad" x1="0%" y1="0%" x2="100%" y2="100%">
      <stop offset="0%" stop-color="#1B4965"/>
      <stop offset="100%" stop-color="#0F2D42"/>
    </linearGradient>
    <linearGradient id="goldGrad" x1="0%" y1="0%" x2="100%" y2="0%">
      <stop offset="0%" stop-color="#E8A838"/>
      <stop offset="100%" stop-color="#F0C060"/>
    </linearGradient>
    <radialGradient id="glow" cx="50%" cy="50%" r="50%">
      <stop offset="0%" stop-color="#E8A838" stop-opacity="0.06"/>
      <stop offset="100%" stop-color="#E8A838" stop-opacity="0"/>
    </radialGradient>
    <clipPath id="roundClip">
      <rect width="1200" height="300" rx="16" ry="16"/>
    </clipPath>
    <pattern id="africaTex" x="0" y="0" width="6" height="6" patternUnits="userSpaceOnUse">
      <rect width="6" height="6" fill="#E8A838"/>
      <path d="M0 0 L3 3 M3 0 L6 3 M0 3 L3 6 M3 3 L6 6" stroke="#D4942E" stroke-width="0.5" opacity="0.3"/>
    </pattern>
  </defs>

  <g clip-path="url(#roundClip)">
    <!-- Background -->
    <rect width="1200" height="300" fill="url(#bgGrad)"/>

    <!-- Subtle grid pattern -->
    <pattern id="grid" x="0" y="0" width="40" height="40" patternUnits="userSpaceOnUse">
      <rect width="40" height="40" fill="none"/>
      <path d="M40 0 L0 0 0 40" fill="none" stroke="#1E5577" stroke-width="0.3" opacity="0.3"/>
    </pattern>
    <rect width="1200" height="300" fill="url(#grid)"/>

    <!-- Glow behind eye -->
    <rect x="50" y="50" width="200" height="200" fill="url(#glow)"/>

    <!-- Left section: Africa silhouette with eye overlay -->
    <g transform="translate(150, 150)">
      <!-- Africa continent silhouette in Deep Blue -->
      <g transform="scale(1.6)" opacity="0.35">
        <path d="M-8,-90 C2,-95 12,-93 20,-88 C28,-82 32,-72 34,-62
                 C36,-50 38,-40 42,-30 C46,-18 52,-8 56,2
                 C59,10 58,18 54,26 C50,34 46,40 44,48
                 C42,56 38,64 32,72 C26,78 18,82 10,84
                 C4,85 -2,84 -8,80 C-14,74 -18,66 -22,56
                 C-26,46 -30,36 -34,24 C-38,14 -42,4 -44,-6
                 C-46,-16 -46,-26 -42,-36 C-38,-46 -32,-54 -26,-64
                 C-20,-72 -14,-80 -8,-86 Z"
             fill="#E8A838" stroke="#D4942E" stroke-width="0.3"/>
        <!-- Madagascar -->
        <ellipse cx="52" cy="42" rx="4" ry="10" fill="#E8A838" stroke="#D4942E" stroke-width="0.2" transform="rotate(12,52,42)"/>
      </g>

      <!-- Eye icon with concentric arcs -->
      <!-- Outer arc (largest) -->
      <path d="M-100,0 A100,80 0 0 1 100,0" fill="none" stroke="#E8A838" stroke-width="2.5" opacity="0.25"/>
      <!-- Second arc -->
      <path d="M-78,0 A78,62 0 0 1 78,0" fill="none" stroke="#E8A838" stroke-width="2.5" opacity="0.45"/>
      <!-- Third arc -->
      <path d="M-56,0 A56,44 0 0 1 56,0" fill="none" stroke="#E8A838" stroke-width="3" opacity="0.7"/>
      <!-- Inner arc -->
      <path d="M-36,0 A36,28 0 0 1 36,0" fill="none" stroke="#E8A838" stroke-width="3.5" opacity="0.9"/>

      <!-- Iris -->
      <circle cx="0" cy="0" r="18" fill="none" stroke="#E8A838" stroke-width="3"/>

      <!-- Pupil -->
      <circle cx="0" cy="0" r="8" fill="#E8A838"/>

      <!-- Light reflection -->
      <circle cx="5" cy="-5" r="3" fill="#FFFFFF" opacity="0.6"/>

      <!-- Lower arcs (mirror, fainter) -->
      <path d="M-100,0 A100,80 0 0 0 100,0" fill="none" stroke="#E8A838" stroke-width="1.5" opacity="0.12"/>
      <path d="M-78,0 A78,62 0 0 0 78,0" fill="none" stroke="#E8A838" stroke-width="1.5" opacity="0.18"/>
    </g>

    <!-- Separator line -->
    <line x1="280" y1="70" x2="280" y2="230" stroke="#E8A838" stroke-width="1" opacity="0.3"/>

    <!-- Right section: Text -->
    <g transform="translate(320, 0)">
      <!-- ANGAVU -->
      <text x="0" y="135" font-family="'Segoe UI','Helvetica Neue',Arial,sans-serif" font-size="72" font-weight="700" fill="#FFFFFF" letter-spacing="6">ANGAVU</text>

      <!-- INTELLIGENCE -->
      <text x="2" y="180" font-family="'Segoe UI','Helvetica Neue',Arial,sans-serif" font-size="32" font-weight="300" fill="#E8A838" letter-spacing="10" opacity="0.95">INTELLIGENCE</text>

      <!-- Divider -->
      <line x1="2" y1="200" x2="500" y2="200" stroke="#E8A838" stroke-width="1" opacity="0.4"/>

      <!-- Tagline -->
      <text x="2" y="228" font-family="'Segoe UI','Helvetica Neue',Arial,sans-serif" font-size="17" font-weight="300" fill="#FFFFFF" letter-spacing="3" opacity="0.65">Clarity for Africa's Invisible Economy</text>
    </g>

    <!-- Corner accent dots -->
    <circle cx="30" cy="30" r="3" fill="#E8A838" opacity="0.5"/>
    <circle cx="1170" cy="30" r="3" fill="#E8A838" opacity="0.5"/>
    <circle cx="30" cy="270" r="3" fill="#E8A838" opacity="0.5"/>
    <circle cx="1170" cy="270" r="3" fill="#E8A838" opacity="0.5"/>
  </g>

  <!-- Border -->
  <rect x="1" y="1" width="1198" height="298" rx="16" ry="16" fill="none" stroke="#E8A838" stroke-width="1" opacity="0.2"/>
</svg>
