<svg xmlns="http://www.w3.org/2000/svg" viewBox="0 0 1280 640" width="1280" height="640">
  <defs>
    <linearGradient id="bg" x1="0%" y1="0%" x2="100%" y2="100%">
      <stop offset="0%" stop-color="#0A1628"/>
      <stop offset="50%" stop-color="#0F2D42"/>
      <stop offset="100%" stop-color="#1B4965"/>
    </linearGradient>
    <linearGradient id="gold" x1="0%" y1="0%" x2="100%" y2="0%">
      <stop offset="0%" stop-color="#E8A838"/>
      <stop offset="100%" stop-color="#F0C060"/>
    </linearGradient>
    <filter id="glow">
      <feGaussianBlur stdDeviation="3" result="coloredBlur"/>
      <feMerge><feMergeNode in="coloredBlur"/><feMergeNode in="SourceGraphic"/></feMerge>
    </filter>
  </defs>

  <rect width="1280" height="640" fill="url(#bg)"/>
  <pattern id="grid" x="0" y="0" width="40" height="40" patternUnits="userSpaceOnUse">
    <path d="M40 0 L0 0 0 40" fill="none" stroke="#1E5577" stroke-width="0.3" opacity="0.2"/>
  </pattern>
  <rect width="1280" height="640" fill="url(#grid)"/>
  <rect x="0" y="0" width="1280" height="3" fill="url(#gold)" opacity="0.8"/>

  <!-- Neural Network Africa Icon (left) -->
  <g transform="translate(200, 280)" filter="url(#glow)">
    <g stroke="#E8A838" stroke-width="1.2" opacity="0.35" fill="none">
      <line x1="0" y1="-120" x2="-24" y2="-95"/>
      <line x1="0" y1="-120" x2="22" y2="-97"/>
      <line x1="-24" y1="-95" x2="22" y2="-97"/>
      <line x1="-24" y1="-95" x2="-42" y2="-68"/>
      <line x1="22" y1="-97" x2="36" y2="-70"/>
      <line x1="-24" y1="-95" x2="0" y2="-72"/>
      <line x1="22" y1="-97" x2="0" y2="-72"/>
      <line x1="-42" y1="-68" x2="0" y2="-72"/>
      <line x1="36" y1="-70" x2="0" y2="-72"/>
      <line x1="-42" y1="-68" x2="-48" y2="-35"/>
      <line x1="36" y1="-70" x2="45" y2="-38"/>
      <line x1="0" y1="-72" x2="-48" y2="-35"/>
      <line x1="0" y1="-72" x2="45" y2="-38"/>
      <line x1="-42" y1="-68" x2="45" y2="-38"/>
      <line x1="-48" y1="-35" x2="45" y2="-38"/>
      <line x1="-48" y1="-35" x2="-36" y2="0"/>
      <line x1="45" y1="-38" x2="42" y2="0"/>
      <line x1="-48" y1="-35" x2="-21" y2="6"/>
      <line x1="45" y1="-38" x2="21" y2="6"/>
      <line x1="-36" y1="0" x2="-21" y2="6"/>
      <line x1="42" y1="0" x2="21" y2="6"/>
      <line x1="-21" y1="6" x2="21" y2="6"/>
      <line x1="-36" y1="0" x2="21" y2="6"/>
      <line x1="42" y1="0" x2="-21" y2="6"/>
      <line x1="-21" y1="6" x2="-26" y2="42"/>
      <line x1="21" y1="6" x2="26" y2="36"/>
      <line x1="-36" y1="0" x2="-26" y2="42"/>
      <line x1="42" y1="0" x2="26" y2="36"/>
      <line x1="-26" y1="42" x2="26" y2="36"/>
      <line x1="-26" y1="42" x2="-15" y2="60"/>
      <line x1="26" y1="36" x2="15" y2="54"/>
      <line x1="-26" y1="42" x2="15" y2="54"/>
      <line x1="26" y1="36" x2="-15" y2="60"/>
      <line x1="-15" y1="60" x2="15" y2="54"/>
      <line x1="-15" y1="60" x2="0" y2="78"/>
      <line x1="15" y1="54" x2="0" y2="78"/>
      <line x1="-15" y1="60" x2="6" y2="90"/>
      <line x1="15" y1="54" x2="6" y2="90"/>
      <line x1="0" y1="78" x2="6" y2="90"/>
      <line x1="42" y1="0" x2="60" y2="22"/>
      <line x1="26" y1="36" x2="60" y2="22"/>
      <line x1="0" y1="-120" x2="-42" y2="-68"/>
      <line x1="-42" y1="-68" x2="-36" y2="0"/>
      <line x1="-48" y1="-35" x2="-66" y2="-12"/>
      <line x1="-66" y1="-12" x2="-36" y2="0"/>
      <line x1="-66" y1="-12" x2="-48" y2="-35"/>
    </g>

    <!-- 18 Nodes as Africa -->
    <circle cx="0" cy="-120" r="6" fill="#E8A838"/>
    <circle cx="-24" cy="-95" r="5.5" fill="#E8A838"/>
    <circle cx="22" cy="-97" r="5.5" fill="#E8A838"/>
    <circle cx="-66" cy="-12" r="5" fill="#E8A838"/>
    <circle cx="-48" cy="-35" r="5.5" fill="#E8A838"/>
    <circle cx="-42" cy="-68" r="5" fill="#E8A838"/>
    <circle cx="36" cy="-70" r="5" fill="#E8A838"/>
    <circle cx="0" cy="-72" r="7" fill="#E8A838"/>
    <circle cx="-36" cy="0" r="6" fill="#E8A838"/>
    <circle cx="45" cy="-38" r="5.5" fill="#E8A838"/>
    <circle cx="-21" cy="6" r="6.5" fill="#E8A838"/>
    <!-- ★ KENYA HQ -->
    <circle cx="21" cy="6" r="9" fill="#F0C060" stroke="#FFFFFF" stroke-width="2"/>
    <circle cx="-26" cy="42" r="5.5" fill="#E8A838"/>
    <circle cx="26" cy="36" r="5.5" fill="#E8A838"/>
    <circle cx="60" cy="22" r="4.5" fill="#E8A838"/>
    <circle cx="-15" cy="60" r="5.5" fill="#E8A838"/>
    <circle cx="15" cy="54" r="5.5" fill="#E8A838"/>
    <circle cx="0" cy="78" r="6" fill="#E8A838"/>
    <circle cx="6" cy="90" r="5" fill="#E8A838"/>

    <text x="21" y="-12" text-anchor="middle" font-family="'Segoe UI',Arial,sans-serif" font-size="10" font-weight="700" fill="#FFFFFF" letter-spacing="0.5">KENYA</text>
    <text x="21" y="-1" text-anchor="middle" font-family="'Segoe UI',Arial,sans-serif" font-size="7" fill="#FFFFFF" opacity="0.7">HQ</text>
  </g>

  <line x1="380" y1="120" x2="380" y2="520" stroke="#E8A838" stroke-width="1" opacity="0.2"/>

  <!-- Right: Text Content -->
  <g transform="translate(440, 0)">
    <text x="0" y="200" font-family="'Segoe UI','Helvetica Neue',Arial,sans-serif" font-size="96" font-weight="700" fill="#FFFFFF" letter-spacing="8">ANGAVU</text>
    <text x="2" y="250" font-family="'Segoe UI','Helvetica Neue',Arial,sans-serif" font-size="36" font-weight="300" fill="#E8A838" letter-spacing="12">INTELLIGENCE</text>
    <line x1="2" y1="275" x2="600" y2="275" stroke="#E8A838" stroke-width="1" opacity="0.3"/>
    <text x="2" y="310" font-family="'Segoe UI','Helvetica Neue',Arial,sans-serif" font-size="20" font-weight="300" fill="#FFFFFF" letter-spacing="4" opacity="0.6">Clarity for Africa's Invisible Economy</text>

    <g transform="translate(0, 360)">
      <g>
        <text x="0" y="0" font-family="'Segoe UI',sans-serif" font-size="28" font-weight="700" fill="#E8A838">600M+</text>
        <text x="0" y="22" font-family="'Segoe UI',sans-serif" font-size="12" font-weight="300" fill="#FFFFFF" opacity="0.5">Informal Workers</text>
      </g>
      <g transform="translate(180, 0)">
        <text x="0" y="0" font-family="'Segoe UI',sans-serif" font-size="28" font-weight="700" fill="#E8A838">14</text>
        <text x="0" y="22" font-family="'Segoe UI',sans-serif" font-size="12" font-weight="300" fill="#FFFFFF" opacity="0.5">African Dialects</text>
      </g>
      <g transform="translate(320, 0)">
        <text x="0" y="0" font-family="'Segoe UI',sans-serif" font-size="28" font-weight="700" fill="#E8A838">4</text>
        <text x="0" y="22" font-family="'Segoe UI',sans-serif" font-size="12" font-weight="300" fill="#FFFFFF" opacity="0.5">AI Products</text>
      </g>
      <g transform="translate(440, 0)">
        <text x="0" y="0" font-family="'Segoe UI',sans-serif" font-size="28" font-weight="700" fill="#E8A838">33</text>
        <text x="0" y="22" font-family="'Segoe UI',sans-serif" font-size="12" font-weight="300" fill="#FFFFFF" opacity="0.5">AI Agents</text>
      </g>
    </g>

    <g transform="translate(0, 430)">
      <g>
        <rect x="0" y="0" width="140" height="50" rx="8" fill="#E8A838" opacity="0.15" stroke="#E8A838" stroke-width="1"/>
        <text x="70" y="22" font-family="'Segoe UI',sans-serif" font-size="11" font-weight="600" fill="#E8A838" text-anchor="middle">SOKO PULSE</text>
        <text x="70" y="38" font-family="'Segoe UI',sans-serif" font-size="9" font-weight="300" fill="#FFFFFF" opacity="0.5" text-anchor="middle">Market Intelligence</text>
      </g>
      <g transform="translate(160, 0)">
        <rect x="0" y="0" width="140" height="50" rx="8" fill="#E8A838" opacity="0.15" stroke="#E8A838" stroke-width="1"/>
        <text x="70" y="22" font-family="'Segoe UI',sans-serif" font-size="11" font-weight="600" fill="#E8A838" text-anchor="middle">BIASHARA PULSE</text>
        <text x="70" y="38" font-family="'Segoe UI',sans-serif" font-size="9" font-weight="300" fill="#FFFFFF" opacity="0.5" text-anchor="middle">Business Intelligence</text>
      </g>
      <g transform="translate(320, 0)">
        <rect x="0" y="0" width="140" height="50" rx="8" fill="#E8A838" opacity="0.15" stroke="#E8A838" stroke-width="1"/>
        <text x="70" y="22" font-family="'Segoe UI',sans-serif" font-size="11" font-weight="600" fill="#E8A838" text-anchor="middle">ALAMA SCORE</text>
        <text x="70" y="38" font-family="'Segoe UI',sans-serif" font-size="9" font-weight="300" fill="#FFFFFF" opacity="0.5" text-anchor="middle">Credit Scoring</text>
      </g>
      <g transform="translate(480, 0)">
        <rect x="0" y="0" width="140" height="50" rx="8" fill="#E8A838" opacity="0.15" stroke="#E8A838" stroke-width="1"/>
        <text x="70" y="22" font-family="'Segoe UI',sans-serif" font-size="11" font-weight="600" fill="#E8A838" text-anchor="middle">JAMII INSIGHTS</text>
        <text x="70" y="38" font-family="'Segoe UI',sans-serif" font-size="9" font-weight="300" fill="#FFFFFF" opacity="0.5" text-anchor="middle">Community Intelligence</text>
      </g>
    </g>

    <g transform="translate(0, 510)">
      <text x="0" y="0" font-family="'Segoe UI',sans-serif" font-size="11" font-weight="300" fill="#FFFFFF" opacity="0.3">On-Device AI • Federated Learning • Voice-First • Offline-First • 14 Dialects • Kotlin + Python</text>
    </g>
  </g>

  <rect x="0" y="637" width="1280" height="3" fill="url(#gold)" opacity="0.8"/>

  <circle cx="20" cy="20" r="3" fill="#E8A838" opacity="0.4"/>
  <circle cx="1260" cy="20" r="3" fill="#E8A838" opacity="0.4"/>
  <circle cx="20" cy="620" r="3" fill="#E8A838" opacity="0.4"/>
  <circle cx="1260" cy="620" r="3" fill="#E8A838" opacity="0.4"/>
</svg>