<svg xmlns="http://www.w3.org/2000/svg" width="1200" height="630" viewBox="0 0 1200 630">
  <defs>
    <linearGradient id="bgGrad" x1="0%" y1="0%" x2="100%" y2="100%">
      <stop offset="0%" stop-color="#1B4965"/>
      <stop offset="100%" stop-color="#0F2D42"/>
    </linearGradient>
  </defs>

  <rect width="1200" height="630" fill="url(#bgGrad)"/>

  <!-- Gold accent bar -->
  <rect x="0" y="0" width="1200" height="4" fill="#E8A838"/>

  <!-- Eye icon centered -->
  <g transform="translate(600, 220)">
    <path d="M-100,0 A100,78 0 0 1 100,0" fill="none" stroke="#E8A838" stroke-width="3" opacity="0.25"/>
    <path d="M-78,0 A78,60 0 0 1 78,0" fill="none" stroke="#E8A838" stroke-width="3" opacity="0.45"/>
    <path d="M-56,0 A56,43 0 0 1 56,0" fill="none" stroke="#E8A838" stroke-width="3.5" opacity="0.7"/>
    <path d="M-36,0 A36,28 0 0 1 36,0" fill="none" stroke="#E8A838" stroke-width="4" opacity="0.9"/>
    <circle cx="0" cy="0" r="18" fill="none" stroke="#E8A838" stroke-width="3.5"/>
    <circle cx="0" cy="0" r="8" fill="#E8A838"/>
    <circle cx="5" cy="-5" r="3" fill="#FFFFFF" opacity="0.5"/>
  </g>

  <text x="600" y="340" text-anchor="middle" font-family="'Segoe UI','Helvetica Neue',Arial,sans-serif" font-size="56" font-weight="700" fill="#FFFFFF" letter-spacing="4">ANGAVU INTELLIGENCE</text>

  <text x="600" y="400" text-anchor="middle" font-family="'Segoe UI','Helvetica Neue',Arial,sans-serif" font-size="22" font-weight="300" fill="#E8A838" letter-spacing="3">Clarity for Africa's Invisible Economy</text>

  <line x1="400" y1="425" x2="800" y2="425" stroke="#E8A838" stroke-width="1" opacity="0.3"/>

  <text x="600" y="480" text-anchor="middle" font-family="'Segoe UI','Helvetica Neue',Arial,sans-serif" font-size="17" fill="#FFFFFF" opacity="0.5">Msaidizi — Voice-first AI CFO for informal workers</text>

  <text x="600" y="570" text-anchor="middle" font-family="'Segoe UI','Helvetica Neue',Arial,sans-serif" font-size="16" fill="#FFFFFF" opacity="0.35">angavuintelligence.com</text>
</svg>
