<?xml version="1.0" standalone="no"?>
<svg xmlns="http://www.w3.org/2000/svg" version="1.1" width="198" height="198">
	<!-- Created with https://api.qrserver.com (QR Code API, see goQR.me/api for information) -->
	<title>QR Code</title>
	<desc>https://github.com/ovalentine964/angavu-intelligence/releases</desc>
	<rect style="fill:rgb(255, 255, 255);fill-opacity:1" x="0" y="0" width="198" height="198" />
	<g id="elements">
		<path style="fill:rgb(0, 0, 0)" d="M 0,0 l 6,0 0,6 -6,0 z M 6,0 l 6,0 0,6 -6,0 z M 12,0 l 6,0 0,6 -6,0 z M 18,0 l 6,0 0,6 -6,0 z M 24,0 l 6,0 0,6 -6,0 z M 30,0 l 6,0 0,6 -6,0 z M 36,0 l 6,0 0,6 -6,0 z M 60,0 l 6,0 0,6 -6,0 z M 72,0 l 6,0 0,6 -6,0 z M 96,0 l 6,0 0,6 -6,0 z M 108,0 l 6,0 0,6 -6,0 z M 114,0 l 6,0 0,6 -6,0 z M 120,0 l 6,0 0,6 -6,0 z M 138,0 l 6,0 0,6 -6,0 z M 156,0 l 6,0 0,6 -6,0 z M 162,0 l 6,0 0,6 -6,0 z M 168,0 l 6,0 0,6 -6,0 z M 174,0 l 6,0 0,6 -6,0 z M 180,0 l 6,0 0,6 -6,0 z M 186,0 l 6,0 0,6 -6,0 z M 192,0 l 6,0 0,6 -6,0 z M 0,6 l 6,0 0,6 -6,0 z M 36,6 l 6,0 0,6 -6,0 z M 48,6 l 6,0 0,6 -6,0 z M 60,6 l 6,0 0,6 -6,0 z M 84,6 l 6,0 0,6 -6,0 z M 90,6 l 6,0 0,6 -6,0 z M 96,6 l 6,0 0,6 -6,0 z M 132,6 l 6,0 0,6 -6,0 z M 156,6 l 6,0 0,6 -6,0 z M 192,6 l 6,0 0,6 -6,0 z M 0,12 l 6,0 0,6 -6,0 z M 12,12 l 6,0 0,6 -6,0 z M 18,12 l 6,0 0,6 -6,0 z M 24,12 l 6,0 0,6 -6,0 z M 36,12 l 6,0 0,6 -6,0 z M 72,12 l 6,0 0,6 -6,0 z M 84,12 l 6,0 0,6 -6,0 z M 120,12 l 6,0 0,6 -6,0 z M 126,12 l 6,0 0,6 -6,0 z M 144,12 l 6,0 0,6 -6,0 z M 156,12 l 6,0 0,6 -6,0 z M 168,12 l 6,0 0,6 -6,0 z M 174,12 l 6,0 0,6 -6,0 z M 180,12 l 6,0 0,6 -6,0 z M 192,12 l 6,0 0,6 -6,0 z M 0,18 l 6,0 0,6 -6,0 z M 12,18 l 6,0 0,6 -6,0 z M 18,18 l 6,0 0,6 -6,0 z M 24,18 l 6,0 0,6 -6,0 z M 36,18 l 6,0 0,6 -6,0 z M 48,18 l 6,0 0,6 -6,0 z M 54,18 l 6,0 0,6 -6,0 z M 60,18 l 6,0 0,6 -6,0 z M 72,18 l 6,0 0,6 -6,0 z M 78,18 l 6,0 0,6 -6,0 z M 84,18 l 6,0 0,6 -6,0 z M 90,18 l 6,0 0,6 -6,0 z M 96,18 l 6,0 0,6 -6,0 z M 102,18 l 6,0 0,6 -6,0 z M 120,18 l 6,0 0,6 -6,0 z M 132,18 l 6,0 0,6 -6,0 z M 138,18 l 6,0 0,6 -6,0 z M 144,18 l 6,0 0,6 -6,0 z M 156,18 l 6,0 0,6 -6,0 z M 168,18 l 6,0 0,6 -6,0 z M 174,18 l 6,0 0,6 -6,0 z M 180,18 l 6,0 0,6 -6,0 z M 192,18 l 6,0 0,6 -6,0 z M 0,24 l 6,0 0,6 -6,0 z M 12,24 l 6,0 0,6 -6,0 z M 18,24 l 6,0 0,6 -6,0 z M 24,24 l 6,0 0,6 -6,0 z M 36,24 l 6,0 0,6 -6,0 z M 54,24 l 6,0 0,6 -6,0 z M 84,24 l 6,0 0,6 -6,0 z M 96,24 l 6,0 0,6 -6,0 z M 102,24 l 6,0 0,6 -6,0 z M 108,24 l 6,0 0,6 -6,0 z M 114,24 l 6,0 0,6 -6,0 z M 120,24 l 6,0 0,6 -6,0 z M 126,24 l 6,0 0,6 -6,0 z M 138,24 l 6,0 0,6 -6,0 z M 156,24 l 6,0 0,6 -6,0 z M 168,24 l 6,0 0,6 -6,0 z M 174,24 l 6,0 0,6 -6,0 z M 180,24 l 6,0 0,6 -6,0 z M 192,24 l 6,0 0,6 -6,0 z M 0,30 l 6,0 0,6 -6,0 z M 36,30 l 6,0 0,6 -6,0 z M 48,30 l 6,0 0,6 -6,0 z M 54,30 l 6,0 0,6 -6,0 z M 66,30 l 6,0 0,6 -6,0 z M 72,30 l 6,0 0,6 -6,0 z M 78,30 l 6,0 0,6 -6,0 z M 90,30 l 6,0 0,6 -6,0 z M 96,30 l 6,0 0,6 -6,0 z M 126,30 l 6,0 0,6 -6,0 z M 132,30 l 6,0 0,6 -6,0 z M 144,30 l 6,0 0,6 -6,0 z M 156,30 l 6,0 0,6 -6,0 z M 192,30 l 6,0 0,6 -6,0 z M 0,36 l 6,0 0,6 -6,0 z M 6,36 l 6,0 0,6 -6,0 z M 12,36 l 6,0 0,6 -6,0 z M 18,36 l 6,0 0,6 -6,0 z M 24,36 l 6,0 0,6 -6,0 z M 30,36 l 6,0 0,6 -6,0 z M 36,36 l 6,0 0,6 -6,0 z M 48,36 l 6,0 0,6 -6,0 z M 60,36 l 6,0 0,6 -6,0 z M 72,36 l 6,0 0,6 -6,0 z M 84,36 l 6,0 0,6 -6,0 z M 96,36 l 6,0 0,6 -6,0 z M 108,36 l 6,0 0,6 -6,0 z M 120,36 l 6,0 0,6 -6,0 z M 132,36 l 6,0 0,6 -6,0 z M 144,36 l 6,0 0,6 -6,0 z M 156,36 l 6,0 0,6 -6,0 z M 162,36 l 6,0 0,6 -6,0 z M 168,36 l 6,0 0,6 -6,0 z M 174,36 l 6,0 0,6 -6,0 z M 180,36 l 6,0 0,6 -6,0 z M 186,36 l 6,0 0,6 -6,0 z M 192,36 l 6,0 0,6 -6,0 z M 54,42 l 6,0 0,6 -6,0 z M 60,42 l 6,0 0,6 -6,0 z M 66,42 l 6,0 0,6 -6,0 z M 84,42 l 6,0 0,6 -6,0 z M 90,42 l 6,0 0,6 -6,0 z M 108,42 l 6,0 0,6 -6,0 z M 114,42 l 6,0 0,6 -6,0 z M 120,42 l 6,0 0,6 -6,0 z M 126,42 l 6,0 0,6 -6,0 z M 132,42 l 6,0 0,6 -6,0 z M 0,48 l 6,0 0,6 -6,0 z M 6,48 l 6,0 0,6 -6,0 z M 12,48 l 6,0 0,6 -6,0 z M 18,48 l 6,0 0,6 -6,0 z M 24,48 l 6,0 0,6 -6,0 z M 36,48 l 6,0 0,6 -6,0 z M 42,48 l 6,0 0,6 -6,0 z M 48,48 l 6,0 0,6 -6,0 z M 54,48 l 6,0 0,6 -6,0 z M 66,48 l 6,0 0,6 -6,0 z M 90,48 l 6,0 0,6 -6,0 z M 102,48 l 6,0 0,6 -6,0 z M 114,48 l 6,0 0,6 -6,0 z M 150,48 l 6,0 0,6 -6,0 z M 162,48 l 6,0 0,6 -6,0 z M 174,48 l 6,0 0,6 -6,0 z M 186,48 l 6,0 0,6 -6,0 z M 0,54 l 6,0 0,6 -6,0 z M 6,54 l 6,0 0,6 -6,0 z M 12,54 l 6,0 0,6 -6,0 z M 42,54 l 6,0 0,6 -6,0 z M 60,54 l 6,0 0,6 -6,0 z M 72,54 l 6,0 0,6 -6,0 z M 78,54 l 6,0 0,6 -6,0 z M 96,54 l 6,0 0,6 -6,0 z M 102,54 l 6,0 0,6 -6,0 z M 108,54 l 6,0 0,6 -6,0 z M 114,54 l 6,0 0,6 -6,0 z M 120,54 l 6,0 0,6 -6,0 z M 132,54 l 6,0 0,6 -6,0 z M 138,54 l 6,0 0,6 -6,0 z M 156,54 l 6,0 0,6 -6,0 z M 180,54 l 6,0 0,6 -6,0 z M 186,54 l 6,0 0,6 -6,0 z M 192,54 l 6,0 0,6 -6,0 z M 0,60 l 6,0 0,6 -6,0 z M 6,60 l 6,0 0,6 -6,0 z M 18,60 l 6,0 0,6 -6,0 z M 24,60 l 6,0 0,6 -6,0 z M 30,60 l 6,0 0,6 -6,0 z M 36,60 l 6,0 0,6 -6,0 z M 42,60 l 6,0 0,6 -6,0 z M 48,60 l 6,0 0,6 -6,0 z M 60,60 l 6,0 0,6 -6,0 z M 78,60 l 6,0 0,6 -6,0 z M 84,60 l 6,0 0,6 -6,0 z M 90,60 l 6,0 0,6 -6,0 z M 96,60 l 6,0 0,6 -6,0 z M 120,60 l 6,0 0,6 -6,0 z M 126,60 l 6,0 0,6 -6,0 z M 144,60 l 6,0 0,6 -6,0 z M 162,60 l 6,0 0,6 -6,0 z M 168,60 l 6,0 0,6 -6,0 z M 174,60 l 6,0 0,6 -6,0 z M 186,60 l 6,0 0,6 -6,0 z M 6,66 l 6,0 0,6 -6,0 z M 48,66 l 6,0 0,6 -6,0 z M 72,66 l 6,0 0,6 -6,0 z M 78,66 l 6,0 0,6 -6,0 z M 90,66 l 6,0 0,6 -6,0 z M 96,66 l 6,0 0,6 -6,0 z M 108,66 l 6,0 0,6 -6,0 z M 126,66 l 6,0 0,6 -6,0 z M 132,66 l 6,0 0,6 -6,0 z M 138,66 l 6,0 0,6 -6,0 z M 150,66 l 6,0 0,6 -6,0 z M 156,66 l 6,0 0,6 -6,0 z M 168,66 l 6,0 0,6 -6,0 z M 180,66 l 6,0 0,6 -6,0 z M 0,72 l 6,0 0,6 -6,0 z M 18,72 l 6,0 0,6 -6,0 z M 36,72 l 6,0 0,6 -6,0 z M 54,72 l 6,0 0,6 -6,0 z M 60,72 l 6,0 0,6 -6,0 z M 72,72 l 6,0 0,6 -6,0 z M 84,72 l 6,0 0,6 -6,0 z M 90,72 l 6,0 0,6 -6,0 z M 102,72 l 6,0 0,6 -6,0 z M 114,72 l 6,0 0,6 -6,0 z M 138,72 l 6,0 0,6 -6,0 z M 144,72 l 6,0 0,6 -6,0 z M 150,72 l 6,0 0,6 -6,0 z M 162,72 l 6,0 0,6 -6,0 z M 168,72 l 6,0 0,6 -6,0 z M 174,72 l 6,0 0,6 -6,0 z M 0,78 l 6,0 0,6 -6,0 z M 18,78 l 6,0 0,6 -6,0 z M 24,78 l 6,0 0,6 -6,0 z M 42,78 l 6,0 0,6 -6,0 z M 96,78 l 6,0 0,6 -6,0 z M 102,78 l 6,0 0,6 -6,0 z M 108,78 l 6,0 0,6 -6,0 z M 114,78 l 6,0 0,6 -6,0 z M 120,78 l 6,0 0,6 -6,0 z M 126,78 l 6,0 0,6 -6,0 z M 132,78 l 6,0 0,6 -6,0 z M 138,78 l 6,0 0,6 -6,0 z M 156,78 l 6,0 0,6 -6,0 z M 162,78 l 6,0 0,6 -6,0 z M 186,78 l 6,0 0,6 -6,0 z M 192,78 l 6,0 0,6 -6,0 z M 6,84 l 6,0 0,6 -6,0 z M 18,84 l 6,0 0,6 -6,0 z M 30,84 l 6,0 0,6 -6,0 z M 36,84 l 6,0 0,6 -6,0 z M 48,84 l 6,0 0,6 -6,0 z M 60,84 l 6,0 0,6 -6,0 z M 66,84 l 6,0 0,6 -6,0 z M 72,84 l 6,0 0,6 -6,0 z M 90,84 l 6,0 0,6 -6,0 z M 108,84 l 6,0 0,6 -6,0 z M 120,84 l 6,0 0,6 -6,0 z M 132,84 l 6,0 0,6 -6,0 z M 150,84 l 6,0 0,6 -6,0 z M 156,84 l 6,0 0,6 -6,0 z M 162,84 l 6,0 0,6 -6,0 z M 168,84 l 6,0 0,6 -6,0 z M 186,84 l 6,0 0,6 -6,0 z M 12,90 l 6,0 0,6 -6,0 z M 24,90 l 6,0 0,6 -6,0 z M 42,90 l 6,0 0,6 -6,0 z M 48,90 l 6,0 0,6 -6,0 z M 54,90 l 6,0 0,6 -6,0 z M 66,90 l 6,0 0,6 -6,0 z M 84,90 l 6,0 0,6 -6,0 z M 90,90 l 6,0 0,6 -6,0 z M 96,90 l 6,0 0,6 -6,0 z M 120,90 l 6,0 0,6 -6,0 z M 126,90 l 6,0 0,6 -6,0 z M 150,90 l 6,0 0,6 -6,0 z M 156,90 l 6,0 0,6 -6,0 z M 162,90 l 6,0 0,6 -6,0 z M 180,90 l 6,0 0,6 -6,0 z M 6,96 l 6,0 0,6 -6,0 z M 12,96 l 6,0 0,6 -6,0 z M 36,96 l 6,0 0,6 -6,0 z M 66,96 l 6,0 0,6 -6,0 z M 102,96 l 6,0 0,6 -6,0 z M 114,96 l 6,0 0,6 -6,0 z M 144,96 l 6,0 0,6 -6,0 z M 150,96 l 6,0 0,6 -6,0 z M 162,96 l 6,0 0,6 -6,0 z M 168,96 l 6,0 0,6 -6,0 z M 186,96 l 6,0 0,6 -6,0 z M 18,102 l 6,0 0,6 -6,0 z M 30,102 l 6,0 0,6 -6,0 z M 54,102 l 6,0 0,6 -6,0 z M 72,102 l 6,0 0,6 -6,0 z M 78,102 l 6,0 0,6 -6,0 z M 84,102 l 6,0 0,6 -6,0 z M 96,102 l 6,0 0,6 -6,0 z M 108,102 l 6,0 0,6 -6,0 z M 114,102 l 6,0 0,6 -6,0 z M 126,102 l 6,0 0,6 -6,0 z M 132,102 l 6,0 0,6 -6,0 z M 138,102 l 6,0 0,6 -6,0 z M 156,102 l 6,0 0,6 -6,0 z M 174,102 l 6,0 0,6 -6,0 z M 186,102 l 6,0 0,6 -6,0 z M 192,102 l 6,0 0,6 -6,0 z M 6,108 l 6,0 0,6 -6,0 z M 12,108 l 6,0 0,6 -6,0 z M 18,108 l 6,0 0,6 -6,0 z M 30,108 l 6,0 0,6 -6,0 z M 36,108 l 6,0 0,6 -6,0 z M 54,108 l 6,0 0,6 -6,0 z M 60,108 l 6,0 0,6 -6,0 z M 78,108 l 6,0 0,6 -6,0 z M 84,108 l 6,0 0,6 -6,0 z M 90,108 l 6,0 0,6 -6,0 z M 96,108 l 6,0 0,6 -6,0 z M 102,108 l 6,0 0,6 -6,0 z M 120,108 l 6,0 0,6 -6,0 z M 126,108 l 6,0 0,6 -6,0 z M 132,108 l 6,0 0,6 -6,0 z M 144,108 l 6,0 0,6 -6,0 z M 150,108 l 6,0 0,6 -6,0 z M 156,108 l 6,0 0,6 -6,0 z M 174,108 l 6,0 0,6 -6,0 z M 186,108 l 6,0 0,6 -6,0 z M 0,114 l 6,0 0,6 -6,0 z M 12,114 l 6,0 0,6 -6,0 z M 42,114 l 6,0 0,6 -6,0 z M 48,114 l 6,0 0,6 -6,0 z M 54,114 l 6,0 0,6 -6,0 z M 72,114 l 6,0 0,6 -6,0 z M 78,114 l 6,0 0,6 -6,0 z M 90,114 l 6,0 0,6 -6,0 z M 96,114 l 6,0 0,6 -6,0 z M 120,114 l 6,0 0,6 -6,0 z M 126,114 l 6,0 0,6 -6,0 z M 150,114 l 6,0 0,6 -6,0 z M 180,114 l 6,0 0,6 -6,0 z M 0,120 l 6,0 0,6 -6,0 z M 18,120 l 6,0 0,6 -6,0 z M 36,120 l 6,0 0,6 -6,0 z M 60,120 l 6,0 0,6 -6,0 z M 72,120 l 6,0 0,6 -6,0 z M 84,120 l 6,0 0,6 -6,0 z M 90,120 l 6,0 0,6 -6,0 z M 102,120 l 6,0 0,6 -6,0 z M 120,120 l 6,0 0,6 -6,0 z M 138,120 l 6,0 0,6 -6,0 z M 144,120 l 6,0 0,6 -6,0 z M 168,120 l 6,0 0,6 -6,0 z M 186,120 l 6,0 0,6 -6,0 z M 0,126 l 6,0 0,6 -6,0 z M 6,126 l 6,0 0,6 -6,0 z M 30,126 l 6,0 0,6 -6,0 z M 54,126 l 6,0 0,6 -6,0 z M 96,126 l 6,0 0,6 -6,0 z M 108,126 l 6,0 0,6 -6,0 z M 114,126 l 6,0 0,6 -6,0 z M 120,126 l 6,0 0,6 -6,0 z M 138,126 l 6,0 0,6 -6,0 z M 156,126 l 6,0 0,6 -6,0 z M 174,126 l 6,0 0,6 -6,0 z M 186,126 l 6,0 0,6 -6,0 z M 192,126 l 6,0 0,6 -6,0 z M 0,132 l 6,0 0,6 -6,0 z M 24,132 l 6,0 0,6 -6,0 z M 36,132 l 6,0 0,6 -6,0 z M 42,132 l 6,0 0,6 -6,0 z M 48,132 l 6,0 0,6 -6,0 z M 54,132 l 6,0 0,6 -6,0 z M 60,132 l 6,0 0,6 -6,0 z M 66,132 l 6,0 0,6 -6,0 z M 72,132 l 6,0 0,6 -6,0 z M 90,132 l 6,0 0,6 -6,0 z M 132,132 l 6,0 0,6 -6,0 z M 150,132 l 6,0 0,6 -6,0 z M 156,132 l 6,0 0,6 -6,0 z M 162,132 l 6,0 0,6 -6,0 z M 174,132 l 6,0 0,6 -6,0 z M 186,132 l 6,0 0,6 -6,0 z M 0,138 l 6,0 0,6 -6,0 z M 12,138 l 6,0 0,6 -6,0 z M 48,138 l 6,0 0,6 -6,0 z M 60,138 l 6,0 0,6 -6,0 z M 66,138 l 6,0 0,6 -6,0 z M 84,138 l 6,0 0,6 -6,0 z M 114,138 l 6,0 0,6 -6,0 z M 120,138 l 6,0 0,6 -6,0 z M 126,138 l 6,0 0,6 -6,0 z M 132,138 l 6,0 0,6 -6,0 z M 144,138 l 6,0 0,6 -6,0 z M 150,138 l 6,0 0,6 -6,0 z M 156,138 l 6,0 0,6 -6,0 z M 162,138 l 6,0 0,6 -6,0 z M 168,138 l 6,0 0,6 -6,0 z M 174,138 l 6,0 0,6 -6,0 z M 180,138 l 6,0 0,6 -6,0 z M 0,144 l 6,0 0,6 -6,0 z M 12,144 l 6,0 0,6 -6,0 z M 36,144 l 6,0 0,6 -6,0 z M 42,144 l 6,0 0,6 -6,0 z M 48,144 l 6,0 0,6 -6,0 z M 54,144 l 6,0 0,6 -6,0 z M 60,144 l 6,0 0,6 -6,0 z M 66,144 l 6,0 0,6 -6,0 z M 90,144 l 6,0 0,6 -6,0 z M 96,144 l 6,0 0,6 -6,0 z M 102,144 l 6,0 0,6 -6,0 z M 120,144 l 6,0 0,6 -6,0 z M 132,144 l 6,0 0,6 -6,0 z M 144,144 l 6,0 0,6 -6,0 z M 150,144 l 6,0 0,6 -6,0 z M 156,144 l 6,0 0,6 -6,0 z M 162,144 l 6,0 0,6 -6,0 z M 168,144 l 6,0 0,6 -6,0 z M 192,144 l 6,0 0,6 -6,0 z M 48,150 l 6,0 0,6 -6,0 z M 54,150 l 6,0 0,6 -6,0 z M 72,150 l 6,0 0,6 -6,0 z M 78,150 l 6,0 0,6 -6,0 z M 84,150 l 6,0 0,6 -6,0 z M 96,150 l 6,0 0,6 -6,0 z M 102,150 l 6,0 0,6 -6,0 z M 108,150 l 6,0 0,6 -6,0 z M 114,150 l 6,0 0,6 -6,0 z M 120,150 l 6,0 0,6 -6,0 z M 126,150 l 6,0 0,6 -6,0 z M 144,150 l 6,0 0,6 -6,0 z M 168,150 l 6,0 0,6 -6,0 z M 174,150 l 6,0 0,6 -6,0 z M 180,150 l 6,0 0,6 -6,0 z M 192,150 l 6,0 0,6 -6,0 z M 0,156 l 6,0 0,6 -6,0 z M 6,156 l 6,0 0,6 -6,0 z M 12,156 l 6,0 0,6 -6,0 z M 18,156 l 6,0 0,6 -6,0 z M 24,156 l 6,0 0,6 -6,0 z M 30,156 l 6,0 0,6 -6,0 z M 36,156 l 6,0 0,6 -6,0 z M 48,156 l 6,0 0,6 -6,0 z M 60,156 l 6,0 0,6 -6,0 z M 78,156 l 6,0 0,6 -6,0 z M 84,156 l 6,0 0,6 -6,0 z M 90,156 l 6,0 0,6 -6,0 z M 96,156 l 6,0 0,6 -6,0 z M 102,156 l 6,0 0,6 -6,0 z M 120,156 l 6,0 0,6 -6,0 z M 126,156 l 6,0 0,6 -6,0 z M 138,156 l 6,0 0,6 -6,0 z M 144,156 l 6,0 0,6 -6,0 z M 156,156 l 6,0 0,6 -6,0 z M 168,156 l 6,0 0,6 -6,0 z M 174,156 l 6,0 0,6 -6,0 z M 186,156 l 6,0 0,6 -6,0 z M 0,162 l 6,0 0,6 -6,0 z M 36,162 l 6,0 0,6 -6,0 z M 54,162 l 6,0 0,6 -6,0 z M 60,162 l 6,0 0,6 -6,0 z M 72,162 l 6,0 0,6 -6,0 z M 78,162 l 6,0 0,6 -6,0 z M 96,162 l 6,0 0,6 -6,0 z M 108,162 l 6,0 0,6 -6,0 z M 126,162 l 6,0 0,6 -6,0 z M 132,162 l 6,0 0,6 -6,0 z M 138,162 l 6,0 0,6 -6,0 z M 144,162 l 6,0 0,6 -6,0 z M 168,162 l 6,0 0,6 -6,0 z M 174,162 l 6,0 0,6 -6,0 z M 180,162 l 6,0 0,6 -6,0 z M 186,162 l 6,0 0,6 -6,0 z M 0,168 l 6,0 0,6 -6,0 z M 12,168 l 6,0 0,6 -6,0 z M 18,168 l 6,0 0,6 -6,0 z M 24,168 l 6,0 0,6 -6,0 z M 36,168 l 6,0 0,6 -6,0 z M 48,168 l 6,0 0,6 -6,0 z M 54,168 l 6,0 0,6 -6,0 z M 60,168 l 6,0 0,6 -6,0 z M 72,168 l 6,0 0,6 -6,0 z M 84,168 l 6,0 0,6 -6,0 z M 102,168 l 6,0 0,6 -6,0 z M 132,168 l 6,0 0,6 -6,0 z M 144,168 l 6,0 0,6 -6,0 z M 150,168 l 6,0 0,6 -6,0 z M 156,168 l 6,0 0,6 -6,0 z M 162,168 l 6,0 0,6 -6,0 z M 168,168 l 6,0 0,6 -6,0 z M 186,168 l 6,0 0,6 -6,0 z M 192,168 l 6,0 0,6 -6,0 z M 0,174 l 6,0 0,6 -6,0 z M 12,174 l 6,0 0,6 -6,0 z M 18,174 l 6,0 0,6 -6,0 z M 24,174 l 6,0 0,6 -6,0 z M 36,174 l 6,0 0,6 -6,0 z M 48,174 l 6,0 0,6 -6,0 z M 108,174 l 6,0 0,6 -6,0 z M 114,174 l 6,0 0,6 -6,0 z M 120,174 l 6,0 0,6 -6,0 z M 150,174 l 6,0 0,6 -6,0 z M 162,174 l 6,0 0,6 -6,0 z M 168,174 l 6,0 0,6 -6,0 z M 186,174 l 6,0 0,6 -6,0 z M 192,174 l 6,0 0,6 -6,0 z M 0,180 l 6,0 0,6 -6,0 z M 12,180 l 6,0 0,6 -6,0 z M 18,180 l 6,0 0,6 -6,0 z M 24,180 l 6,0 0,6 -6,0 z M 36,180 l 6,0 0,6 -6,0 z M 48,180 l 6,0 0,6 -6,0 z M 66,180 l 6,0 0,6 -6,0 z M 72,180 l 6,0 0,6 -6,0 z M 90,180 l 6,0 0,6 -6,0 z M 96,180 l 6,0 0,6 -6,0 z M 102,180 l 6,0 0,6 -6,0 z M 108,180 l 6,0 0,6 -6,0 z M 120,180 l 6,0 0,6 -6,0 z M 132,180 l 6,0 0,6 -6,0 z M 138,180 l 6,0 0,6 -6,0 z M 144,180 l 6,0 0,6 -6,0 z M 156,180 l 6,0 0,6 -6,0 z M 174,180 l 6,0 0,6 -6,0 z M 180,180 l 6,0 0,6 -6,0 z M 0,186 l 6,0 0,6 -6,0 z M 36,186 l 6,0 0,6 -6,0 z M 48,186 l 6,0 0,6 -6,0 z M 54,186 l 6,0 0,6 -6,0 z M 66,186 l 6,0 0,6 -6,0 z M 84,186 l 6,0 0,6 -6,0 z M 90,186 l 6,0 0,6 -6,0 z M 96,186 l 6,0 0,6 -6,0 z M 114,186 l 6,0 0,6 -6,0 z M 120,186 l 6,0 0,6 -6,0 z M 126,186 l 6,0 0,6 -6,0 z M 138,186 l 6,0 0,6 -6,0 z M 150,186 l 6,0 0,6 -6,0 z M 156,186 l 6,0 0,6 -6,0 z M 162,186 l 6,0 0,6 -6,0 z M 174,186 l 6,0 0,6 -6,0 z M 180,186 l 6,0 0,6 -6,0 z M 0,192 l 6,0 0,6 -6,0 z M 6,192 l 6,0 0,6 -6,0 z M 12,192 l 6,0 0,6 -6,0 z M 18,192 l 6,0 0,6 -6,0 z M 24,192 l 6,0 0,6 -6,0 z M 30,192 l 6,0 0,6 -6,0 z M 36,192 l 6,0 0,6 -6,0 z M 48,192 l 6,0 0,6 -6,0 z M 54,192 l 6,0 0,6 -6,0 z M 60,192 l 6,0 0,6 -6,0 z M 66,192 l 6,0 0,6 -6,0 z M 90,192 l 6,0 0,6 -6,0 z M 102,192 l 6,0 0,6 -6,0 z M 132,192 l 6,0 0,6 -6,0 z M 138,192 l 6,0 0,6 -6,0 z M 144,192 l 6,0 0,6 -6,0 z M 150,192 l 6,0 0,6 -6,0 z M 156,192 l 6,0 0,6 -6,0 z M 174,192 l 6,0 0,6 -6,0 z M 186,192 l 6,0 0,6 -6,0 z " />
	</g>
</svg>
