<?xml version="1.0" standalone="no"?>
<svg xmlns="http://www.w3.org/2000/svg" version="1.1" width="185" height="185">
	<!-- Created with https://api.qrserver.com (QR Code API, see goQR.me/api for information) -->
	<title>QR Code</title>
	<desc>https://github.com/ovalentine964/msaidizi-app/releases/latest/download/msaidizi.apk</desc>
	<rect style="fill:rgb(255, 255, 255);fill-opacity:1" x="0" y="0" width="185" height="185" />
	<g id="elements">
		<path style="fill:rgb(0, 0, 0)" d="M 0,0 l 5,0 0,5 -5,0 z M 5,0 l 5,0 0,5 -5,0 z M 10,0 l 5,0 0,5 -5,0 z M 15,0 l 5,0 0,5 -5,0 z M 20,0 l 5,0 0,5 -5,0 z M 25,0 l 5,0 0,5 -5,0 z M 30,0 l 5,0 0,5 -5,0 z M 45,0 l 5,0 0,5 -5,0 z M 75,0 l 5,0 0,5 -5,0 z M 80,0 l 5,0 0,5 -5,0 z M 90,0 l 5,0 0,5 -5,0 z M 95,0 l 5,0 0,5 -5,0 z M 100,0 l 5,0 0,5 -5,0 z M 105,0 l 5,0 0,5 -5,0 z M 115,0 l 5,0 0,5 -5,0 z M 125,0 l 5,0 0,5 -5,0 z M 150,0 l 5,0 0,5 -5,0 z M 155,0 l 5,0 0,5 -5,0 z M 160,0 l 5,0 0,5 -5,0 z M 165,0 l 5,0 0,5 -5,0 z M 170,0 l 5,0 0,5 -5,0 z M 175,0 l 5,0 0,5 -5,0 z M 180,0 l 5,0 0,5 -5,0 z M 0,5 l 5,0 0,5 -5,0 z M 30,5 l 5,0 0,5 -5,0 z M 40,5 l 5,0 0,5 -5,0 z M 45,5 l 5,0 0,5 -5,0 z M 55,5 l 5,0 0,5 -5,0 z M 60,5 l 5,0 0,5 -5,0 z M 90,5 l 5,0 0,5 -5,0 z M 100,5 l 5,0 0,5 -5,0 z M 105,5 l 5,0 0,5 -5,0 z M 125,5 l 5,0 0,5 -5,0 z M 130,5 l 5,0 0,5 -5,0 z M 135,5 l 5,0 0,5 -5,0 z M 150,5 l 5,0 0,5 -5,0 z M 180,5 l 5,0 0,5 -5,0 z M 0,10 l 5,0 0,5 -5,0 z M 10,10 l 5,0 0,5 -5,0 z M 15,10 l 5,0 0,5 -5,0 z M 20,10 l 5,0 0,5 -5,0 z M 30,10 l 5,0 0,5 -5,0 z M 45,10 l 5,0 0,5 -5,0 z M 50,10 l 5,0 0,5 -5,0 z M 55,10 l 5,0 0,5 -5,0 z M 70,10 l 5,0 0,5 -5,0 z M 80,10 l 5,0 0,5 -5,0 z M 95,10 l 5,0 0,5 -5,0 z M 100,10 l 5,0 0,5 -5,0 z M 105,10 l 5,0 0,5 -5,0 z M 110,10 l 5,0 0,5 -5,0 z M 130,10 l 5,0 0,5 -5,0 z M 135,10 l 5,0 0,5 -5,0 z M 140,10 l 5,0 0,5 -5,0 z M 150,10 l 5,0 0,5 -5,0 z M 160,10 l 5,0 0,5 -5,0 z M 165,10 l 5,0 0,5 -5,0 z M 170,10 l 5,0 0,5 -5,0 z M 180,10 l 5,0 0,5 -5,0 z M 0,15 l 5,0 0,5 -5,0 z M 10,15 l 5,0 0,5 -5,0 z M 15,15 l 5,0 0,5 -5,0 z M 20,15 l 5,0 0,5 -5,0 z M 30,15 l 5,0 0,5 -5,0 z M 40,15 l 5,0 0,5 -5,0 z M 45,15 l 5,0 0,5 -5,0 z M 55,15 l 5,0 0,5 -5,0 z M 80,15 l 5,0 0,5 -5,0 z M 85,15 l 5,0 0,5 -5,0 z M 95,15 l 5,0 0,5 -5,0 z M 110,15 l 5,0 0,5 -5,0 z M 120,15 l 5,0 0,5 -5,0 z M 125,15 l 5,0 0,5 -5,0 z M 130,15 l 5,0 0,5 -5,0 z M 135,15 l 5,0 0,5 -5,0 z M 140,15 l 5,0 0,5 -5,0 z M 150,15 l 5,0 0,5 -5,0 z M 160,15 l 5,0 0,5 -5,0 z M 165,15 l 5,0 0,5 -5,0 z M 170,15 l 5,0 0,5 -5,0 z M 180,15 l 5,0 0,5 -5,0 z M 0,20 l 5,0 0,5 -5,0 z M 10,20 l 5,0 0,5 -5,0 z M 15,20 l 5,0 0,5 -5,0 z M 20,20 l 5,0 0,5 -5,0 z M 30,20 l 5,0 0,5 -5,0 z M 50,20 l 5,0 0,5 -5,0 z M 60,20 l 5,0 0,5 -5,0 z M 65,20 l 5,0 0,5 -5,0 z M 70,20 l 5,0 0,5 -5,0 z M 75,20 l 5,0 0,5 -5,0 z M 90,20 l 5,0 0,5 -5,0 z M 95,20 l 5,0 0,5 -5,0 z M 100,20 l 5,0 0,5 -5,0 z M 105,20 l 5,0 0,5 -5,0 z M 110,20 l 5,0 0,5 -5,0 z M 115,20 l 5,0 0,5 -5,0 z M 125,20 l 5,0 0,5 -5,0 z M 150,20 l 5,0 0,5 -5,0 z M 160,20 l 5,0 0,5 -5,0 z M 165,20 l 5,0 0,5 -5,0 z M 170,20 l 5,0 0,5 -5,0 z M 180,20 l 5,0 0,5 -5,0 z M 0,25 l 5,0 0,5 -5,0 z M 30,25 l 5,0 0,5 -5,0 z M 40,25 l 5,0 0,5 -5,0 z M 50,25 l 5,0 0,5 -5,0 z M 65,25 l 5,0 0,5 -5,0 z M 70,25 l 5,0 0,5 -5,0 z M 75,25 l 5,0 0,5 -5,0 z M 80,25 l 5,0 0,5 -5,0 z M 120,25 l 5,0 0,5 -5,0 z M 130,25 l 5,0 0,5 -5,0 z M 135,25 l 5,0 0,5 -5,0 z M 150,25 l 5,0 0,5 -5,0 z M 180,25 l 5,0 0,5 -5,0 z M 0,30 l 5,0 0,5 -5,0 z M 5,30 l 5,0 0,5 -5,0 z M 10,30 l 5,0 0,5 -5,0 z M 15,30 l 5,0 0,5 -5,0 z M 20,30 l 5,0 0,5 -5,0 z M 25,30 l 5,0 0,5 -5,0 z M 30,30 l 5,0 0,5 -5,0 z M 40,30 l 5,0 0,5 -5,0 z M 50,30 l 5,0 0,5 -5,0 z M 60,30 l 5,0 0,5 -5,0 z M 70,30 l 5,0 0,5 -5,0 z M 80,30 l 5,0 0,5 -5,0 z M 90,30 l 5,0 0,5 -5,0 z M 100,30 l 5,0 0,5 -5,0 z M 110,30 l 5,0 0,5 -5,0 z M 120,30 l 5,0 0,5 -5,0 z M 130,30 l 5,0 0,5 -5,0 z M 140,30 l 5,0 0,5 -5,0 z M 150,30 l 5,0 0,5 -5,0 z M 155,30 l 5,0 0,5 -5,0 z M 160,30 l 5,0 0,5 -5,0 z M 165,30 l 5,0 0,5 -5,0 z M 170,30 l 5,0 0,5 -5,0 z M 175,30 l 5,0 0,5 -5,0 z M 180,30 l 5,0 0,5 -5,0 z M 60,35 l 5,0 0,5 -5,0 z M 65,35 l 5,0 0,5 -5,0 z M 75,35 l 5,0 0,5 -5,0 z M 90,35 l 5,0 0,5 -5,0 z M 100,35 l 5,0 0,5 -5,0 z M 105,35 l 5,0 0,5 -5,0 z M 110,35 l 5,0 0,5 -5,0 z M 130,35 l 5,0 0,5 -5,0 z M 140,35 l 5,0 0,5 -5,0 z M 0,40 l 5,0 0,5 -5,0 z M 5,40 l 5,0 0,5 -5,0 z M 10,40 l 5,0 0,5 -5,0 z M 15,40 l 5,0 0,5 -5,0 z M 20,40 l 5,0 0,5 -5,0 z M 30,40 l 5,0 0,5 -5,0 z M 35,40 l 5,0 0,5 -5,0 z M 40,40 l 5,0 0,5 -5,0 z M 45,40 l 5,0 0,5 -5,0 z M 50,40 l 5,0 0,5 -5,0 z M 60,40 l 5,0 0,5 -5,0 z M 70,40 l 5,0 0,5 -5,0 z M 75,40 l 5,0 0,5 -5,0 z M 85,40 l 5,0 0,5 -5,0 z M 90,40 l 5,0 0,5 -5,0 z M 95,40 l 5,0 0,5 -5,0 z M 110,40 l 5,0 0,5 -5,0 z M 115,40 l 5,0 0,5 -5,0 z M 120,40 l 5,0 0,5 -5,0 z M 125,40 l 5,0 0,5 -5,0 z M 130,40 l 5,0 0,5 -5,0 z M 135,40 l 5,0 0,5 -5,0 z M 140,40 l 5,0 0,5 -5,0 z M 145,40 l 5,0 0,5 -5,0 z M 155,40 l 5,0 0,5 -5,0 z M 165,40 l 5,0 0,5 -5,0 z M 175,40 l 5,0 0,5 -5,0 z M 5,45 l 5,0 0,5 -5,0 z M 20,45 l 5,0 0,5 -5,0 z M 75,45 l 5,0 0,5 -5,0 z M 80,45 l 5,0 0,5 -5,0 z M 85,45 l 5,0 0,5 -5,0 z M 90,45 l 5,0 0,5 -5,0 z M 95,45 l 5,0 0,5 -5,0 z M 100,45 l 5,0 0,5 -5,0 z M 105,45 l 5,0 0,5 -5,0 z M 115,45 l 5,0 0,5 -5,0 z M 130,45 l 5,0 0,5 -5,0 z M 165,45 l 5,0 0,5 -5,0 z M 170,45 l 5,0 0,5 -5,0 z M 175,45 l 5,0 0,5 -5,0 z M 0,50 l 5,0 0,5 -5,0 z M 10,50 l 5,0 0,5 -5,0 z M 25,50 l 5,0 0,5 -5,0 z M 30,50 l 5,0 0,5 -5,0 z M 35,50 l 5,0 0,5 -5,0 z M 45,50 l 5,0 0,5 -5,0 z M 50,50 l 5,0 0,5 -5,0 z M 55,50 l 5,0 0,5 -5,0 z M 60,50 l 5,0 0,5 -5,0 z M 85,50 l 5,0 0,5 -5,0 z M 105,50 l 5,0 0,5 -5,0 z M 110,50 l 5,0 0,5 -5,0 z M 125,50 l 5,0 0,5 -5,0 z M 135,50 l 5,0 0,5 -5,0 z M 140,50 l 5,0 0,5 -5,0 z M 145,50 l 5,0 0,5 -5,0 z M 155,50 l 5,0 0,5 -5,0 z M 165,50 l 5,0 0,5 -5,0 z M 170,50 l 5,0 0,5 -5,0 z M 180,50 l 5,0 0,5 -5,0 z M 0,55 l 5,0 0,5 -5,0 z M 5,55 l 5,0 0,5 -5,0 z M 10,55 l 5,0 0,5 -5,0 z M 25,55 l 5,0 0,5 -5,0 z M 35,55 l 5,0 0,5 -5,0 z M 40,55 l 5,0 0,5 -5,0 z M 45,55 l 5,0 0,5 -5,0 z M 50,55 l 5,0 0,5 -5,0 z M 55,55 l 5,0 0,5 -5,0 z M 70,55 l 5,0 0,5 -5,0 z M 80,55 l 5,0 0,5 -5,0 z M 95,55 l 5,0 0,5 -5,0 z M 100,55 l 5,0 0,5 -5,0 z M 105,55 l 5,0 0,5 -5,0 z M 110,55 l 5,0 0,5 -5,0 z M 130,55 l 5,0 0,5 -5,0 z M 135,55 l 5,0 0,5 -5,0 z M 145,55 l 5,0 0,5 -5,0 z M 155,55 l 5,0 0,5 -5,0 z M 160,55 l 5,0 0,5 -5,0 z M 165,55 l 5,0 0,5 -5,0 z M 175,55 l 5,0 0,5 -5,0 z M 10,60 l 5,0 0,5 -5,0 z M 30,60 l 5,0 0,5 -5,0 z M 35,60 l 5,0 0,5 -5,0 z M 40,60 l 5,0 0,5 -5,0 z M 45,60 l 5,0 0,5 -5,0 z M 55,60 l 5,0 0,5 -5,0 z M 85,60 l 5,0 0,5 -5,0 z M 95,60 l 5,0 0,5 -5,0 z M 110,60 l 5,0 0,5 -5,0 z M 120,60 l 5,0 0,5 -5,0 z M 125,60 l 5,0 0,5 -5,0 z M 130,60 l 5,0 0,5 -5,0 z M 140,60 l 5,0 0,5 -5,0 z M 145,60 l 5,0 0,5 -5,0 z M 150,60 l 5,0 0,5 -5,0 z M 160,60 l 5,0 0,5 -5,0 z M 165,60 l 5,0 0,5 -5,0 z M 170,60 l 5,0 0,5 -5,0 z M 180,60 l 5,0 0,5 -5,0 z M 10,65 l 5,0 0,5 -5,0 z M 15,65 l 5,0 0,5 -5,0 z M 20,65 l 5,0 0,5 -5,0 z M 25,65 l 5,0 0,5 -5,0 z M 35,65 l 5,0 0,5 -5,0 z M 40,65 l 5,0 0,5 -5,0 z M 60,65 l 5,0 0,5 -5,0 z M 65,65 l 5,0 0,5 -5,0 z M 70,65 l 5,0 0,5 -5,0 z M 75,65 l 5,0 0,5 -5,0 z M 85,65 l 5,0 0,5 -5,0 z M 90,65 l 5,0 0,5 -5,0 z M 95,65 l 5,0 0,5 -5,0 z M 100,65 l 5,0 0,5 -5,0 z M 105,65 l 5,0 0,5 -5,0 z M 110,65 l 5,0 0,5 -5,0 z M 115,65 l 5,0 0,5 -5,0 z M 155,65 l 5,0 0,5 -5,0 z M 170,65 l 5,0 0,5 -5,0 z M 175,65 l 5,0 0,5 -5,0 z M 0,70 l 5,0 0,5 -5,0 z M 5,70 l 5,0 0,5 -5,0 z M 15,70 l 5,0 0,5 -5,0 z M 20,70 l 5,0 0,5 -5,0 z M 25,70 l 5,0 0,5 -5,0 z M 30,70 l 5,0 0,5 -5,0 z M 35,70 l 5,0 0,5 -5,0 z M 45,70 l 5,0 0,5 -5,0 z M 50,70 l 5,0 0,5 -5,0 z M 65,70 l 5,0 0,5 -5,0 z M 70,70 l 5,0 0,5 -5,0 z M 75,70 l 5,0 0,5 -5,0 z M 80,70 l 5,0 0,5 -5,0 z M 100,70 l 5,0 0,5 -5,0 z M 120,70 l 5,0 0,5 -5,0 z M 135,70 l 5,0 0,5 -5,0 z M 140,70 l 5,0 0,5 -5,0 z M 145,70 l 5,0 0,5 -5,0 z M 155,70 l 5,0 0,5 -5,0 z M 160,70 l 5,0 0,5 -5,0 z M 170,70 l 5,0 0,5 -5,0 z M 175,70 l 5,0 0,5 -5,0 z M 180,70 l 5,0 0,5 -5,0 z M 0,75 l 5,0 0,5 -5,0 z M 5,75 l 5,0 0,5 -5,0 z M 15,75 l 5,0 0,5 -5,0 z M 20,75 l 5,0 0,5 -5,0 z M 35,75 l 5,0 0,5 -5,0 z M 40,75 l 5,0 0,5 -5,0 z M 45,75 l 5,0 0,5 -5,0 z M 50,75 l 5,0 0,5 -5,0 z M 60,75 l 5,0 0,5 -5,0 z M 65,75 l 5,0 0,5 -5,0 z M 95,75 l 5,0 0,5 -5,0 z M 100,75 l 5,0 0,5 -5,0 z M 105,75 l 5,0 0,5 -5,0 z M 110,75 l 5,0 0,5 -5,0 z M 115,75 l 5,0 0,5 -5,0 z M 120,75 l 5,0 0,5 -5,0 z M 130,75 l 5,0 0,5 -5,0 z M 135,75 l 5,0 0,5 -5,0 z M 140,75 l 5,0 0,5 -5,0 z M 145,75 l 5,0 0,5 -5,0 z M 155,75 l 5,0 0,5 -5,0 z M 160,75 l 5,0 0,5 -5,0 z M 165,75 l 5,0 0,5 -5,0 z M 180,75 l 5,0 0,5 -5,0 z M 10,80 l 5,0 0,5 -5,0 z M 15,80 l 5,0 0,5 -5,0 z M 30,80 l 5,0 0,5 -5,0 z M 35,80 l 5,0 0,5 -5,0 z M 40,80 l 5,0 0,5 -5,0 z M 45,80 l 5,0 0,5 -5,0 z M 60,80 l 5,0 0,5 -5,0 z M 70,80 l 5,0 0,5 -5,0 z M 85,80 l 5,0 0,5 -5,0 z M 100,80 l 5,0 0,5 -5,0 z M 125,80 l 5,0 0,5 -5,0 z M 130,80 l 5,0 0,5 -5,0 z M 135,80 l 5,0 0,5 -5,0 z M 145,80 l 5,0 0,5 -5,0 z M 150,80 l 5,0 0,5 -5,0 z M 160,80 l 5,0 0,5 -5,0 z M 165,80 l 5,0 0,5 -5,0 z M 170,80 l 5,0 0,5 -5,0 z M 180,80 l 5,0 0,5 -5,0 z M 0,85 l 5,0 0,5 -5,0 z M 5,85 l 5,0 0,5 -5,0 z M 15,85 l 5,0 0,5 -5,0 z M 25,85 l 5,0 0,5 -5,0 z M 35,85 l 5,0 0,5 -5,0 z M 45,85 l 5,0 0,5 -5,0 z M 50,85 l 5,0 0,5 -5,0 z M 80,85 l 5,0 0,5 -5,0 z M 95,85 l 5,0 0,5 -5,0 z M 100,85 l 5,0 0,5 -5,0 z M 115,85 l 5,0 0,5 -5,0 z M 125,85 l 5,0 0,5 -5,0 z M 140,85 l 5,0 0,5 -5,0 z M 145,85 l 5,0 0,5 -5,0 z M 155,85 l 5,0 0,5 -5,0 z M 170,85 l 5,0 0,5 -5,0 z M 175,85 l 5,0 0,5 -5,0 z M 5,90 l 5,0 0,5 -5,0 z M 20,90 l 5,0 0,5 -5,0 z M 25,90 l 5,0 0,5 -5,0 z M 30,90 l 5,0 0,5 -5,0 z M 40,90 l 5,0 0,5 -5,0 z M 50,90 l 5,0 0,5 -5,0 z M 55,90 l 5,0 0,5 -5,0 z M 60,90 l 5,0 0,5 -5,0 z M 75,90 l 5,0 0,5 -5,0 z M 85,90 l 5,0 0,5 -5,0 z M 90,90 l 5,0 0,5 -5,0 z M 100,90 l 5,0 0,5 -5,0 z M 110,90 l 5,0 0,5 -5,0 z M 135,90 l 5,0 0,5 -5,0 z M 145,90 l 5,0 0,5 -5,0 z M 150,90 l 5,0 0,5 -5,0 z M 155,90 l 5,0 0,5 -5,0 z M 160,90 l 5,0 0,5 -5,0 z M 170,90 l 5,0 0,5 -5,0 z M 175,90 l 5,0 0,5 -5,0 z M 180,90 l 5,0 0,5 -5,0 z M 5,95 l 5,0 0,5 -5,0 z M 15,95 l 5,0 0,5 -5,0 z M 20,95 l 5,0 0,5 -5,0 z M 25,95 l 5,0 0,5 -5,0 z M 45,95 l 5,0 0,5 -5,0 z M 55,95 l 5,0 0,5 -5,0 z M 70,95 l 5,0 0,5 -5,0 z M 75,95 l 5,0 0,5 -5,0 z M 95,95 l 5,0 0,5 -5,0 z M 100,95 l 5,0 0,5 -5,0 z M 105,95 l 5,0 0,5 -5,0 z M 110,95 l 5,0 0,5 -5,0 z M 115,95 l 5,0 0,5 -5,0 z M 130,95 l 5,0 0,5 -5,0 z M 140,95 l 5,0 0,5 -5,0 z M 180,95 l 5,0 0,5 -5,0 z M 0,100 l 5,0 0,5 -5,0 z M 15,100 l 5,0 0,5 -5,0 z M 30,100 l 5,0 0,5 -5,0 z M 35,100 l 5,0 0,5 -5,0 z M 40,100 l 5,0 0,5 -5,0 z M 45,100 l 5,0 0,5 -5,0 z M 50,100 l 5,0 0,5 -5,0 z M 55,100 l 5,0 0,5 -5,0 z M 75,100 l 5,0 0,5 -5,0 z M 80,100 l 5,0 0,5 -5,0 z M 85,100 l 5,0 0,5 -5,0 z M 95,100 l 5,0 0,5 -5,0 z M 110,100 l 5,0 0,5 -5,0 z M 115,100 l 5,0 0,5 -5,0 z M 120,100 l 5,0 0,5 -5,0 z M 125,100 l 5,0 0,5 -5,0 z M 130,100 l 5,0 0,5 -5,0 z M 145,100 l 5,0 0,5 -5,0 z M 150,100 l 5,0 0,5 -5,0 z M 160,100 l 5,0 0,5 -5,0 z M 165,100 l 5,0 0,5 -5,0 z M 170,100 l 5,0 0,5 -5,0 z M 175,100 l 5,0 0,5 -5,0 z M 180,100 l 5,0 0,5 -5,0 z M 10,105 l 5,0 0,5 -5,0 z M 15,105 l 5,0 0,5 -5,0 z M 20,105 l 5,0 0,5 -5,0 z M 25,105 l 5,0 0,5 -5,0 z M 35,105 l 5,0 0,5 -5,0 z M 45,105 l 5,0 0,5 -5,0 z M 60,105 l 5,0 0,5 -5,0 z M 65,105 l 5,0 0,5 -5,0 z M 70,105 l 5,0 0,5 -5,0 z M 80,105 l 5,0 0,5 -5,0 z M 90,105 l 5,0 0,5 -5,0 z M 95,105 l 5,0 0,5 -5,0 z M 100,105 l 5,0 0,5 -5,0 z M 115,105 l 5,0 0,5 -5,0 z M 120,105 l 5,0 0,5 -5,0 z M 140,105 l 5,0 0,5 -5,0 z M 155,105 l 5,0 0,5 -5,0 z M 175,105 l 5,0 0,5 -5,0 z M 5,110 l 5,0 0,5 -5,0 z M 15,110 l 5,0 0,5 -5,0 z M 20,110 l 5,0 0,5 -5,0 z M 25,110 l 5,0 0,5 -5,0 z M 30,110 l 5,0 0,5 -5,0 z M 45,110 l 5,0 0,5 -5,0 z M 50,110 l 5,0 0,5 -5,0 z M 65,110 l 5,0 0,5 -5,0 z M 70,110 l 5,0 0,5 -5,0 z M 75,110 l 5,0 0,5 -5,0 z M 80,110 l 5,0 0,5 -5,0 z M 90,110 l 5,0 0,5 -5,0 z M 105,110 l 5,0 0,5 -5,0 z M 110,110 l 5,0 0,5 -5,0 z M 120,110 l 5,0 0,5 -5,0 z M 130,110 l 5,0 0,5 -5,0 z M 135,110 l 5,0 0,5 -5,0 z M 140,110 l 5,0 0,5 -5,0 z M 150,110 l 5,0 0,5 -5,0 z M 160,110 l 5,0 0,5 -5,0 z M 170,110 l 5,0 0,5 -5,0 z M 175,110 l 5,0 0,5 -5,0 z M 180,110 l 5,0 0,5 -5,0 z M 0,115 l 5,0 0,5 -5,0 z M 5,115 l 5,0 0,5 -5,0 z M 10,115 l 5,0 0,5 -5,0 z M 20,115 l 5,0 0,5 -5,0 z M 25,115 l 5,0 0,5 -5,0 z M 40,115 l 5,0 0,5 -5,0 z M 50,115 l 5,0 0,5 -5,0 z M 60,115 l 5,0 0,5 -5,0 z M 65,115 l 5,0 0,5 -5,0 z M 75,115 l 5,0 0,5 -5,0 z M 100,115 l 5,0 0,5 -5,0 z M 105,115 l 5,0 0,5 -5,0 z M 120,115 l 5,0 0,5 -5,0 z M 135,115 l 5,0 0,5 -5,0 z M 145,115 l 5,0 0,5 -5,0 z M 150,115 l 5,0 0,5 -5,0 z M 155,115 l 5,0 0,5 -5,0 z M 160,115 l 5,0 0,5 -5,0 z M 180,115 l 5,0 0,5 -5,0 z M 5,120 l 5,0 0,5 -5,0 z M 25,120 l 5,0 0,5 -5,0 z M 30,120 l 5,0 0,5 -5,0 z M 45,120 l 5,0 0,5 -5,0 z M 50,120 l 5,0 0,5 -5,0 z M 60,120 l 5,0 0,5 -5,0 z M 70,120 l 5,0 0,5 -5,0 z M 75,120 l 5,0 0,5 -5,0 z M 85,120 l 5,0 0,5 -5,0 z M 110,120 l 5,0 0,5 -5,0 z M 125,120 l 5,0 0,5 -5,0 z M 130,120 l 5,0 0,5 -5,0 z M 145,120 l 5,0 0,5 -5,0 z M 150,120 l 5,0 0,5 -5,0 z M 160,120 l 5,0 0,5 -5,0 z M 165,120 l 5,0 0,5 -5,0 z M 170,120 l 5,0 0,5 -5,0 z M 175,120 l 5,0 0,5 -5,0 z M 180,120 l 5,0 0,5 -5,0 z M 0,125 l 5,0 0,5 -5,0 z M 5,125 l 5,0 0,5 -5,0 z M 10,125 l 5,0 0,5 -5,0 z M 15,125 l 5,0 0,5 -5,0 z M 20,125 l 5,0 0,5 -5,0 z M 50,125 l 5,0 0,5 -5,0 z M 80,125 l 5,0 0,5 -5,0 z M 85,125 l 5,0 0,5 -5,0 z M 90,125 l 5,0 0,5 -5,0 z M 95,125 l 5,0 0,5 -5,0 z M 100,125 l 5,0 0,5 -5,0 z M 105,125 l 5,0 0,5 -5,0 z M 115,125 l 5,0 0,5 -5,0 z M 125,125 l 5,0 0,5 -5,0 z M 140,125 l 5,0 0,5 -5,0 z M 165,125 l 5,0 0,5 -5,0 z M 170,125 l 5,0 0,5 -5,0 z M 175,125 l 5,0 0,5 -5,0 z M 0,130 l 5,0 0,5 -5,0 z M 20,130 l 5,0 0,5 -5,0 z M 30,130 l 5,0 0,5 -5,0 z M 50,130 l 5,0 0,5 -5,0 z M 55,130 l 5,0 0,5 -5,0 z M 60,130 l 5,0 0,5 -5,0 z M 75,130 l 5,0 0,5 -5,0 z M 90,130 l 5,0 0,5 -5,0 z M 100,130 l 5,0 0,5 -5,0 z M 105,130 l 5,0 0,5 -5,0 z M 120,130 l 5,0 0,5 -5,0 z M 135,130 l 5,0 0,5 -5,0 z M 145,130 l 5,0 0,5 -5,0 z M 160,130 l 5,0 0,5 -5,0 z M 175,130 l 5,0 0,5 -5,0 z M 180,130 l 5,0 0,5 -5,0 z M 0,135 l 5,0 0,5 -5,0 z M 10,135 l 5,0 0,5 -5,0 z M 35,135 l 5,0 0,5 -5,0 z M 50,135 l 5,0 0,5 -5,0 z M 55,135 l 5,0 0,5 -5,0 z M 70,135 l 5,0 0,5 -5,0 z M 80,135 l 5,0 0,5 -5,0 z M 95,135 l 5,0 0,5 -5,0 z M 100,135 l 5,0 0,5 -5,0 z M 105,135 l 5,0 0,5 -5,0 z M 110,135 l 5,0 0,5 -5,0 z M 120,135 l 5,0 0,5 -5,0 z M 130,135 l 5,0 0,5 -5,0 z M 135,135 l 5,0 0,5 -5,0 z M 140,135 l 5,0 0,5 -5,0 z M 150,135 l 5,0 0,5 -5,0 z M 180,135 l 5,0 0,5 -5,0 z M 0,140 l 5,0 0,5 -5,0 z M 15,140 l 5,0 0,5 -5,0 z M 20,140 l 5,0 0,5 -5,0 z M 25,140 l 5,0 0,5 -5,0 z M 30,140 l 5,0 0,5 -5,0 z M 35,140 l 5,0 0,5 -5,0 z M 45,140 l 5,0 0,5 -5,0 z M 55,140 l 5,0 0,5 -5,0 z M 85,140 l 5,0 0,5 -5,0 z M 95,140 l 5,0 0,5 -5,0 z M 110,140 l 5,0 0,5 -5,0 z M 125,140 l 5,0 0,5 -5,0 z M 130,140 l 5,0 0,5 -5,0 z M 135,140 l 5,0 0,5 -5,0 z M 140,140 l 5,0 0,5 -5,0 z M 145,140 l 5,0 0,5 -5,0 z M 150,140 l 5,0 0,5 -5,0 z M 155,140 l 5,0 0,5 -5,0 z M 160,140 l 5,0 0,5 -5,0 z M 170,140 l 5,0 0,5 -5,0 z M 40,145 l 5,0 0,5 -5,0 z M 50,145 l 5,0 0,5 -5,0 z M 60,145 l 5,0 0,5 -5,0 z M 65,145 l 5,0 0,5 -5,0 z M 70,145 l 5,0 0,5 -5,0 z M 90,145 l 5,0 0,5 -5,0 z M 95,145 l 5,0 0,5 -5,0 z M 105,145 l 5,0 0,5 -5,0 z M 110,145 l 5,0 0,5 -5,0 z M 115,145 l 5,0 0,5 -5,0 z M 125,145 l 5,0 0,5 -5,0 z M 130,145 l 5,0 0,5 -5,0 z M 140,145 l 5,0 0,5 -5,0 z M 160,145 l 5,0 0,5 -5,0 z M 0,150 l 5,0 0,5 -5,0 z M 5,150 l 5,0 0,5 -5,0 z M 10,150 l 5,0 0,5 -5,0 z M 15,150 l 5,0 0,5 -5,0 z M 20,150 l 5,0 0,5 -5,0 z M 25,150 l 5,0 0,5 -5,0 z M 30,150 l 5,0 0,5 -5,0 z M 40,150 l 5,0 0,5 -5,0 z M 50,150 l 5,0 0,5 -5,0 z M 65,150 l 5,0 0,5 -5,0 z M 70,150 l 5,0 0,5 -5,0 z M 75,150 l 5,0 0,5 -5,0 z M 80,150 l 5,0 0,5 -5,0 z M 105,150 l 5,0 0,5 -5,0 z M 110,150 l 5,0 0,5 -5,0 z M 125,150 l 5,0 0,5 -5,0 z M 140,150 l 5,0 0,5 -5,0 z M 150,150 l 5,0 0,5 -5,0 z M 160,150 l 5,0 0,5 -5,0 z M 165,150 l 5,0 0,5 -5,0 z M 175,150 l 5,0 0,5 -5,0 z M 180,150 l 5,0 0,5 -5,0 z M 0,155 l 5,0 0,5 -5,0 z M 30,155 l 5,0 0,5 -5,0 z M 60,155 l 5,0 0,5 -5,0 z M 65,155 l 5,0 0,5 -5,0 z M 75,155 l 5,0 0,5 -5,0 z M 90,155 l 5,0 0,5 -5,0 z M 100,155 l 5,0 0,5 -5,0 z M 105,155 l 5,0 0,5 -5,0 z M 120,155 l 5,0 0,5 -5,0 z M 140,155 l 5,0 0,5 -5,0 z M 160,155 l 5,0 0,5 -5,0 z M 175,155 l 5,0 0,5 -5,0 z M 0,160 l 5,0 0,5 -5,0 z M 10,160 l 5,0 0,5 -5,0 z M 15,160 l 5,0 0,5 -5,0 z M 20,160 l 5,0 0,5 -5,0 z M 30,160 l 5,0 0,5 -5,0 z M 40,160 l 5,0 0,5 -5,0 z M 50,160 l 5,0 0,5 -5,0 z M 60,160 l 5,0 0,5 -5,0 z M 70,160 l 5,0 0,5 -5,0 z M 85,160 l 5,0 0,5 -5,0 z M 100,160 l 5,0 0,5 -5,0 z M 110,160 l 5,0 0,5 -5,0 z M 120,160 l 5,0 0,5 -5,0 z M 125,160 l 5,0 0,5 -5,0 z M 130,160 l 5,0 0,5 -5,0 z M 135,160 l 5,0 0,5 -5,0 z M 140,160 l 5,0 0,5 -5,0 z M 145,160 l 5,0 0,5 -5,0 z M 150,160 l 5,0 0,5 -5,0 z M 155,160 l 5,0 0,5 -5,0 z M 160,160 l 5,0 0,5 -5,0 z M 165,160 l 5,0 0,5 -5,0 z M 170,160 l 5,0 0,5 -5,0 z M 180,160 l 5,0 0,5 -5,0 z M 0,165 l 5,0 0,5 -5,0 z M 10,165 l 5,0 0,5 -5,0 z M 15,165 l 5,0 0,5 -5,0 z M 20,165 l 5,0 0,5 -5,0 z M 30,165 l 5,0 0,5 -5,0 z M 40,165 l 5,0 0,5 -5,0 z M 80,165 l 5,0 0,5 -5,0 z M 85,165 l 5,0 0,5 -5,0 z M 90,165 l 5,0 0,5 -5,0 z M 95,165 l 5,0 0,5 -5,0 z M 100,165 l 5,0 0,5 -5,0 z M 105,165 l 5,0 0,5 -5,0 z M 115,165 l 5,0 0,5 -5,0 z M 125,165 l 5,0 0,5 -5,0 z M 135,165 l 5,0 0,5 -5,0 z M 140,165 l 5,0 0,5 -5,0 z M 145,165 l 5,0 0,5 -5,0 z M 150,165 l 5,0 0,5 -5,0 z M 160,165 l 5,0 0,5 -5,0 z M 165,165 l 5,0 0,5 -5,0 z M 170,165 l 5,0 0,5 -5,0 z M 175,165 l 5,0 0,5 -5,0 z M 180,165 l 5,0 0,5 -5,0 z M 0,170 l 5,0 0,5 -5,0 z M 10,170 l 5,0 0,5 -5,0 z M 15,170 l 5,0 0,5 -5,0 z M 20,170 l 5,0 0,5 -5,0 z M 30,170 l 5,0 0,5 -5,0 z M 40,170 l 5,0 0,5 -5,0 z M 45,170 l 5,0 0,5 -5,0 z M 50,170 l 5,0 0,5 -5,0 z M 55,170 l 5,0 0,5 -5,0 z M 60,170 l 5,0 0,5 -5,0 z M 75,170 l 5,0 0,5 -5,0 z M 90,170 l 5,0 0,5 -5,0 z M 100,170 l 5,0 0,5 -5,0 z M 105,170 l 5,0 0,5 -5,0 z M 110,170 l 5,0 0,5 -5,0 z M 140,170 l 5,0 0,5 -5,0 z M 155,170 l 5,0 0,5 -5,0 z M 165,170 l 5,0 0,5 -5,0 z M 175,170 l 5,0 0,5 -5,0 z M 180,170 l 5,0 0,5 -5,0 z M 0,175 l 5,0 0,5 -5,0 z M 30,175 l 5,0 0,5 -5,0 z M 40,175 l 5,0 0,5 -5,0 z M 45,175 l 5,0 0,5 -5,0 z M 50,175 l 5,0 0,5 -5,0 z M 55,175 l 5,0 0,5 -5,0 z M 70,175 l 5,0 0,5 -5,0 z M 95,175 l 5,0 0,5 -5,0 z M 105,175 l 5,0 0,5 -5,0 z M 110,175 l 5,0 0,5 -5,0 z M 130,175 l 5,0 0,5 -5,0 z M 135,175 l 5,0 0,5 -5,0 z M 140,175 l 5,0 0,5 -5,0 z M 145,175 l 5,0 0,5 -5,0 z M 150,175 l 5,0 0,5 -5,0 z M 155,175 l 5,0 0,5 -5,0 z M 180,175 l 5,0 0,5 -5,0 z M 0,180 l 5,0 0,5 -5,0 z M 5,180 l 5,0 0,5 -5,0 z M 10,180 l 5,0 0,5 -5,0 z M 15,180 l 5,0 0,5 -5,0 z M 20,180 l 5,0 0,5 -5,0 z M 25,180 l 5,0 0,5 -5,0 z M 30,180 l 5,0 0,5 -5,0 z M 40,180 l 5,0 0,5 -5,0 z M 45,180 l 5,0 0,5 -5,0 z M 50,180 l 5,0 0,5 -5,0 z M 55,180 l 5,0 0,5 -5,0 z M 80,180 l 5,0 0,5 -5,0 z M 85,180 l 5,0 0,5 -5,0 z M 100,180 l 5,0 0,5 -5,0 z M 110,180 l 5,0 0,5 -5,0 z M 115,180 l 5,0 0,5 -5,0 z M 120,180 l 5,0 0,5 -5,0 z M 125,180 l 5,0 0,5 -5,0 z M 145,180 l 5,0 0,5 -5,0 z M 150,180 l 5,0 0,5 -5,0 z M 155,180 l 5,0 0,5 -5,0 z M 170,180 l 5,0 0,5 -5,0 z M 175,180 l 5,0 0,5 -5,0 z M 180,180 l 5,0 0,5 -5,0 z " />
	</g>
</svg>
